<?xml version="1.0" encoding="UTF-8" standalone="no"?>
<!-- Created with Inkscape (http://www.inkscape.org/) -->

<svg
   version="1.1"
   id="svg2"
   width="720"
   height="720"
   viewBox="0 0 720 720"
   sodipodi:docname="fsu-seal-full-color.eps"
   xmlns:inkscape="http://www.inkscape.org/namespaces/inkscape"
   xmlns:sodipodi="http://sodipodi.sourceforge.net/DTD/sodipodi-0.dtd"
   xmlns="http://www.w3.org/2000/svg"
   xmlns:svg="http://www.w3.org/2000/svg">
  <defs
     id="defs6" />
  <sodipodi:namedview
     id="namedview4"
     pagecolor="#ffffff"
     bordercolor="#000000"
     borderopacity="0.25"
     inkscape:showpageshadow="2"
     inkscape:pageopacity="0.0"
     inkscape:pagecheckerboard="0"
     inkscape:deskcolor="#d1d1d1" />
  <g
     id="g8"
     inkscape:groupmode="layer"
     inkscape:label="ink_ext_XXXXXX"
     transform="matrix(1.3333333,0,0,-1.3333333,0,720)">
    <g
       id="g10"
       transform="scale(0.1)">
      <path
         d="M 2700,5400 C 1208.66,5400 0,4191.56 0,2700.13 0,1209.22 1208.66,0 2700,0 4191.11,0 5400,1209.22 5400,2700.13 5400,4191.56 4191.11,5400 2700,5400"
         style="fill:#ffffff;fill-opacity:1;fill-rule:nonzero;stroke:none"
         id="path12" />
      <path
         d="M 4427.5,2699.76 C 4427.5,1745.64 3654.01,972.5 2699.85,972.5 1745.76,972.5 972.5,1745.64 972.5,2699.76 c 0,954.31 773.26,1727.75 1727.35,1727.75 954.16,0 1727.65,-773.44 1727.65,-1727.75"
         style="fill:#6a142c;fill-opacity:1;fill-rule:nonzero;stroke:none"
         id="path14" />
      <path
         d="m 4003.18,2885.01 c 45.5,-71.45 158.75,-93.75 224.17,-114.59 21.76,-6.92 45,-19.16 46.66,-56.66 -132.08,-46.25 -269.35,-64.85 -405.82,-60 -162.09,168.75 -183.75,318.33 -174.55,446.48 54.55,-79.4 90.96,-109.51 141,-159.56 31.87,57.66 73.96,126.41 112.21,179.17 9.7,-79 18.88,-176.02 56.33,-234.84 z M 3428.5,2663.68 c 164.42,-34.26 325.79,-64.72 459.66,-64.61 85.9,0.07 214.19,4.28 386.69,56.77 -6.72,-78.71 -30,-201.25 -56.19,-300.24 -42.14,-53.81 -142.31,-87.96 -293.22,-87.96 -168.38,0 -371.75,34.86 -515.21,59.44 z m -1975.36,456.17 c 38.26,-52.76 80.34,-121.51 112.22,-179.17 50.05,50.05 86.46,80.16 141.01,159.56 9.2,-128.15 -12.47,-277.73 -174.55,-446.48 -136.49,-4.85 -273.75,13.75 -405.84,60 1.67,37.5 24.9,49.74 46.67,56.66 65.42,20.84 178.67,43.14 224.17,114.59 37.46,58.82 46.62,155.84 56.32,234.84 z m 536.63,-792.77 c -143.46,-24.58 -346.83,-59.44 -515.21,-59.44 -150.91,0 -251.08,34.15 -293.22,87.96 -26.19,98.99 -49.47,221.53 -56.19,300.24 172.5,-52.49 300.79,-56.7 386.69,-56.77 133.88,-0.11 295.24,30.35 459.66,64.61 z m 348.27,327.73 c 109.61,-44.8 252.11,-73.94 362.11,-73.94 110,0 252.5,29.14 362.11,73.94 l 18.36,-338.37 c -109.61,-44.81 -263.39,-74.81 -380.47,-74.81 -117.08,0 -270.86,30 -380.47,74.81 l 18.36,338.37"
         style="fill:#ffffff;fill-opacity:1;fill-rule:nonzero;stroke:none"
         id="path16" />
      <path
         d="m 3131.4,3307.4 h 449.9 l -90.82,-139.91 h -449.9 l 90.82,139.91"
         style="fill:#ddc68a;fill-opacity:1;fill-rule:nonzero;stroke:none"
         id="path18" />
      <path
         d="m 3063.53,3303.28 -98.15,-151.22 h -530.76 l -98.19,151.22 h 727.1"
         style="fill:#ddc68a;fill-opacity:1;fill-rule:nonzero;stroke:none"
         id="path20" />
      <path
         d="m 2538.53,2977.13 -36.72,120.24 h 396.38 l -36.76,-120.24 h -322.9"
         style="fill:#ddc68a;fill-opacity:1;fill-rule:nonzero;stroke:none"
         id="path22" />
      <path
         d="m 2860.6,2922.44 -14.75,-272.72 c -20.65,-3.67 -42.41,-6.83 -63.41,-9.1 l 7.65,281.82 h 70.51"
         style="fill:#ddc68a;fill-opacity:1;fill-rule:nonzero;stroke:none"
         id="path24" />
      <path
         d="m 2743.95,2922.44 -4.37,-285.2 c -13.48,-0.76 -26.1,-1.39 -39.43,-1.39 -13.43,0 -26.18,0.63 -39.75,1.42 l -4.35,285.17 h 87.9"
         style="fill:#ddc68a;fill-opacity:1;fill-rule:nonzero;stroke:none"
         id="path26" />
      <path
         d="m 2617.56,2640.62 c -20.99,2.3 -42.8,5.48 -63.51,9.15 l -14.74,272.67 h 70.6 l 7.65,-281.82"
         style="fill:#ddc68a;fill-opacity:1;fill-rule:nonzero;stroke:none"
         id="path28" />
      <path
         d="m 1909.57,3167.49 -90.85,139.91 h 449.79 l 90.91,-139.91 h -449.85"
         style="fill:#ddc68a;fill-opacity:1;fill-rule:nonzero;stroke:none"
         id="path30" />
      <path
         d="m 2006.4,2955.09 h 65.33 l 40.69,-1484.39 h -25.51 l -80.51,1484.39"
         style="fill:#ddc68a;fill-opacity:1;fill-rule:nonzero;stroke:none"
         id="path32" />
      <path
         d="m 2154.98,1311.13 -79.2,61.86 9.13,47.13 h 140.14 l 9.18,-47.13 -79.25,-61.86"
         style="fill:#ddc68a;fill-opacity:1;fill-rule:nonzero;stroke:none"
         id="path34" />
      <path
         d="m 2114.36,2955.09 h 81.29 L 2172.64,1470.7 h -35.32 l -22.96,1484.39"
         style="fill:#ddc68a;fill-opacity:1;fill-rule:nonzero;stroke:none"
         id="path36" />
      <path
         d="m 2223.1,1470.7 h -25.46 l 40.69,1484.39 h 65.23 L 2223.1,1470.7"
         style="fill:#ddc68a;fill-opacity:1;fill-rule:nonzero;stroke:none"
         id="path38" />
      <path
         d="m 2304.35,3005.67 h -298.64 l -34.06,111.23 h 366.68 l -33.98,-111.23"
         style="fill:#ddc68a;fill-opacity:1;fill-rule:nonzero;stroke:none"
         id="path40" />
      <path
         d="m 2700,1145.18 -85.69,66.93 9.91,50.88 h 151.51 l 9.87,-50.88 -85.6,-66.93"
         style="fill:#ddc68a;fill-opacity:1;fill-rule:nonzero;stroke:none"
         id="path42" />
      <path
         d="m 2578.76,2194.66 c 16.11,-2.02 34.69,-3.49 51.04,-4.79 l 23.69,-872.19 h -27.12 l -47.61,876.98"
         style="fill:#ddc68a;fill-opacity:1;fill-rule:nonzero;stroke:none"
         id="path44" />
      <path
         d="m 2667.24,2187.72 c 11.77,-0.45 21.19,-1.07 32.91,-1.07 11.62,0 20.96,0.71 32.58,1.15 l -13.27,-870.12 h -38.97 l -13.25,870.04"
         style="fill:#ddc68a;fill-opacity:1;fill-rule:nonzero;stroke:none"
         id="path46" />
      <path
         d="m 2773.58,1317.68 h -27.12 l 23.68,872.17 c 16.36,1.27 34.89,2.74 51,4.76 l -47.56,-876.93"
         style="fill:#ddc68a;fill-opacity:1;fill-rule:nonzero;stroke:none"
         id="path48" />
      <path
         d="m 3096.44,2955.09 h 65.23 l 40.74,-1484.39 h -25.51 l -80.46,1484.39"
         style="fill:#ddc68a;fill-opacity:1;fill-rule:nonzero;stroke:none"
         id="path50" />
      <path
         d="m 3244.97,1311.13 -79.2,61.86 9.18,47.13 h 140.14 l 9.18,-47.13 -79.3,-61.86"
         style="fill:#ddc68a;fill-opacity:1;fill-rule:nonzero;stroke:none"
         id="path52" />
      <path
         d="m 3204.35,2955.09 h 81.34 L 3262.63,1470.7 h -35.32 l -22.96,1484.39"
         style="fill:#ddc68a;fill-opacity:1;fill-rule:nonzero;stroke:none"
         id="path54" />
      <path
         d="m 3313.13,1470.7 h -25.5 l 40.74,1484.39 h 65.23 L 3313.13,1470.7"
         style="fill:#ddc68a;fill-opacity:1;fill-rule:nonzero;stroke:none"
         id="path56" />
      <path
         d="m 3394.38,3005.67 h -298.63 l -34.08,111.23 h 366.7 l -33.99,-111.23"
         style="fill:#ddc68a;fill-opacity:1;fill-rule:nonzero;stroke:none"
         id="path58" />
      <path
         d="m 2350.53,3703.04 c 7.79,-19.61 16.48,-45.66 16.48,-78.81 0,-95.18 -40.39,-138.62 -93,-209.77 -15.3,-20.68 -28.52,-39.2 -40.45,-56.47 h -55.63 c 7.89,30.28 23.24,69.73 51.27,107.78 82.07,111.47 115.96,205.12 121.33,237.27"
         style="fill:#ddc68a;fill-opacity:1;fill-rule:nonzero;stroke:none"
         id="path60" />
      <path
         d="m 2229.3,3524.17 c -34.09,-51.71 -67.92,-112.6 -89.43,-166.18 h -14.9 c -1.4,9.37 -2.19,18.97 -2.19,28.86 0,174.04 144.88,287.09 205.89,405.21 21.06,-92.91 -38.22,-175.28 -99.37,-267.89"
         style="fill:#ddc68a;fill-opacity:1;fill-rule:nonzero;stroke:none"
         id="path62" />
      <path
         d="m 1976.82,3607.34 c 0,76.64 86.69,235.42 86.69,318.8 0,5.46 -0.54,8.36 -2.13,11.98 36.06,-32.84 61.44,-105.59 35.17,-203.79 104.33,140.66 154.31,232.54 148.65,360.6 56.77,-66.47 65.67,-143.52 65.67,-191.13 0,-94.18 -32.49,-126.2 -126.28,-258.79 -90.32,-127.66 -94.4,-202.3 -94.4,-265.98 0,-8.19 0.3,-14.94 0.74,-21.04 h -16.89 c -57.98,90.57 -97.22,164.83 -97.22,249.35"
         style="fill:#ddc68a;fill-opacity:1;fill-rule:nonzero;stroke:none"
         id="path64" />
      <path
         d="m 3440.56,3703.04 c 7.79,-19.61 16.49,-45.66 16.49,-78.81 0,-95.18 -40.39,-138.62 -93,-209.77 -15.3,-20.68 -28.52,-39.2 -40.45,-56.47 h -55.63 c 7.89,30.28 23.24,69.73 51.27,107.78 82.07,111.47 115.96,205.12 121.32,237.27"
         style="fill:#ddc68a;fill-opacity:1;fill-rule:nonzero;stroke:none"
         id="path66" />
      <path
         d="m 3319.34,3524.17 c -34.09,-51.71 -67.92,-112.6 -89.43,-166.18 h -14.9 c -1.4,9.37 -2.19,18.97 -2.19,28.86 0,174.04 144.88,287.09 205.88,405.21 21.06,-92.91 -38.21,-175.28 -99.36,-267.89"
         style="fill:#ddc68a;fill-opacity:1;fill-rule:nonzero;stroke:none"
         id="path68" />
      <path
         d="m 3066.86,3607.34 c 0,76.64 86.68,235.42 86.68,318.8 0,5.46 -0.53,8.36 -2.12,11.98 36.06,-32.84 61.44,-105.59 35.17,-203.79 104.33,140.66 154.31,232.54 148.64,360.6 56.78,-66.47 65.68,-143.52 65.68,-191.13 0,-94.18 -32.49,-126.2 -126.28,-258.79 -90.32,-127.66 -94.41,-202.3 -94.41,-265.98 0,-8.19 0.31,-14.94 0.75,-21.04 h -16.89 c -57.98,90.57 -97.22,164.83 -97.22,249.35"
         style="fill:#ddc68a;fill-opacity:1;fill-rule:nonzero;stroke:none"
         id="path70" />
      <path
         d="m 2907.32,3744.45 c 8.28,-21.97 17.48,-51.13 17.48,-88.27 0,-106.6 -42.81,-155.25 -98.57,-234.94 -16.22,-23.16 -30.22,-43.9 -42.87,-63.25 h -58.98 c 8.36,33.91 24.64,78.1 54.35,120.72 86.99,124.83 122.91,229.73 128.59,265.74"
         style="fill:#ddc68a;fill-opacity:1;fill-rule:nonzero;stroke:none"
         id="path72" />
      <path
         d="m 2778.83,3544.11 c -36.12,-57.91 -71.98,-126.1 -94.79,-186.12 h -15.8 c -1.47,10.51 -2.31,21.26 -2.31,32.32 0,194.93 153.56,321.55 218.22,453.84 22.33,-104.04 -40.5,-196.31 -105.32,-300.04"
         style="fill:#ddc68a;fill-opacity:1;fill-rule:nonzero;stroke:none"
         id="path74" />
      <path
         d="m 2511.2,3637.27 c 0,85.84 91.91,263.67 91.91,357.06 0,6.12 -0.59,9.36 -2.28,13.4 38.24,-36.75 65.14,-118.25 37.3,-228.24 110.58,157.54 163.56,260.46 157.55,403.89 60.2,-74.46 69.62,-160.76 69.62,-214.08 0,-105.48 -34.44,-141.34 -133.86,-289.85 -95.74,-142.97 -100.07,-226.57 -100.07,-297.89 0,-9.18 0.32,-16.74 0.8,-23.57 h -17.91 c -61.46,101.44 -103.06,184.62 -103.06,279.28"
         style="fill:#ddc68a;fill-opacity:1;fill-rule:nonzero;stroke:none"
         id="path76" />
      <path
         d="m 891.23,1518.85 c 13.606,8.79 14.778,10.29 5.989,23.86 l -25.102,38.77 c -17.262,26.66 -24.363,29.95 -52.293,19.05 l -13.719,-5.32 c -6.82,0.59 -14.457,13.52 -11.867,19.58 16.746,9.37 35.711,20.91 54.856,33.32 18.633,12.05 36.941,24.6 51.394,35.29 6.465,-0.04 15.137,-12.35 12.864,-18.79 l -10.454,-10.35 c -20.918,-20.67 -21.355,-28.83 -4.097,-55.49 L 923.895,1560 c 8.793,-13.61 10.625,-13.18 24.218,-4.34 l 67.997,43.99 c 46.83,30.27 48.9,35.96 37.26,60.56 l -9.55,20.22 c 0.76,5.47 12.33,12.99 17.63,11.46 19.18,-31.87 34.66,-56.87 50.29,-81.05 14.99,-23.2 31.79,-48.05 52.34,-77.6 -0.41,-5.99 -12.01,-13.47 -17.62,-11.42 l -13.29,15 c -18.18,20.35 -23.65,21.13 -70.47,-9.18 L 875.359,1406.45 c -46.824,-30.34 -49.382,-36.29 -38.25,-61.2 l 5,-11.03 c -0.097,-6.54 -12.695,-14.65 -18.281,-10.45 -12.988,22.36 -28.789,47.85 -44.414,71.97 l -68.43,105.76 c -20.847,32.23 -39.921,60.65 -45.488,67 8.574,5.56 44.824,29 77.91,51.85 6.836,1.56 14.504,-9.18 14.375,-17.87 -17.039,-18.85 -26.531,-30.7 -29.801,-39.94 -5.058,-15.43 -1.32,-34.47 15.301,-60.16 l 25.418,-39.26 c 10.742,-16.6 11.739,-15.95 31.399,-3.22 l 91.132,58.95"
         style="fill:#231f20;fill-opacity:1;fill-rule:nonzero;stroke:none"
         id="path78" />
      <path
         d="m 828.828,1924.98 c 26.172,10.55 43.098,19.95 49.102,30.76 6.543,11.07 6.953,22.88 -9.407,63.53 -20.41,50.68 -28.367,65.62 -106.199,72.46 -7.375,2.2 -10.304,15.92 -5.195,22.51 30.098,8.88 81.711,14.14 99.875,12.38 10.769,-29.96 31.766,-83.64 50.144,-129.33 l 30.059,-74.62 c 10.32,-25.62 22.09,-53.26 37.109,-87.34 -1.32,-6.37 -13.671,-12.62 -18.828,-9.49 l -11.3,20.02 c -13.426,23.73 -19.239,25.25 -71.024,4.41 l -207.195,-83.41 c -51.789,-20.9 -55.449,-26.27 -48.711,-52.64 l 4.273,-17.09 c -1.101,-6.9 -13.894,-12.07 -19.922,-6.74 -10.546,29.49 -21.218,57.52 -31.98,84.28 -10.774,26.76 -22.539,54.39 -34.863,81.7 1.535,5.82 14.355,10.97 19.48,7.87 l 8.059,-13.6 c 13.984,-23.49 19.797,-25 71.601,-4.18 l 194.922,78.52"
         style="fill:#231f20;fill-opacity:1;fill-rule:nonzero;stroke:none"
         id="path80" />
      <path
         d="m 428.098,2321.93 c 11.914,-72.83 86.406,-100.76 185.254,-84.57 72.246,11.82 184.109,56.27 168.308,152.76 -12.695,77.57 -93.406,95.36 -189.324,79.67 -101.223,-16.59 -176.25,-74.45 -164.238,-147.86 z m 141.043,241.31 c 129.074,21.14 220.769,-52.62 241.601,-179.91 19.485,-118.99 -44.531,-218.21 -168.262,-238.48 -117.238,-19.19 -222.148,53.62 -242.414,177.35 -20.132,123.14 48.879,221.38 169.075,241.04"
         style="fill:#231f20;fill-opacity:1;fill-rule:nonzero;stroke:none"
         id="path82" />
      <path
         d="m 552.883,2761.75 c 20.945,-1.08 22.847,0.63 24.629,35.98 1.101,21.57 -3.633,34.41 -14.453,46.37 -9.641,10.69 -28.246,23.05 -63.579,24.86 -53.906,2.75 -90.25,-27.23 -92.625,-73.96 -1.269,-24.53 0.489,-25.83 29.231,-27.29 z m -80.254,-78.18 c -59.887,3.06 -66.555,2.2 -71.406,-22.77 l -3.227,-16.04 c -3.301,-5.83 -18.289,-5.08 -20.894,2.24 -0.715,45.07 -0.735,91.93 2.168,148.81 2.585,50.93 12.593,94.24 27.539,116.31 22.144,33.69 53.004,50.12 91.336,48.16 53.293,-2.7 74.218,-39.79 86.589,-68.06 2.688,-6.13 6.282,-6.32 13.02,-3.67 82.273,35.45 128.437,57.72 154.465,85.21 13.379,14.94 17.754,30.32 18.828,39.29 3.269,5.22 12.223,4.78 15.672,1.58 3.711,-9.79 3.926,-29.01 2.976,-47.58 -2.808,-55.11 -24.343,-88.82 -68.797,-112.99 -32.714,-17.53 -62.773,-29.81 -95.214,-41.97 -16.536,-6.37 -21.805,-15.69 -22.586,-30.68 -1.047,-20.95 0.078,-22.22 12.058,-22.84 l 73.66,-3.76 c 55.102,-2.8 59.477,0.59 65.649,27.3 l 3.805,16.01 c 3.222,4.04 17.582,3.31 20.976,-1.07 -2.808,-31.66 -4.832,-59.2 -6.297,-87.94 -1.511,-29.95 -2.246,-56.32 -2.636,-87.55 -3.86,-4.59 -18.211,-3.85 -20.977,1.08 l -2.168,16.33 c -3.418,27.2 -7.422,31.01 -62.527,33.81 l -212.012,10.79"
         style="fill:#231f20;fill-opacity:1;fill-rule:nonzero;stroke:none"
         id="path84" />
      <path
         d="m 751.758,3208.33 c 54.883,-13.04 59.785,-10.52 70.847,15.21 l 6.809,15.65 c 4.617,3.86 17.899,0.08 20.293,-5.34 -8.672,-31.25 -16.062,-59.75 -22.59,-87.19 -6.656,-28.03 -13.035,-57.34 -19.351,-89.16 -4.621,-3.83 -18.047,-0.65 -20.442,4.86 l 0.977,17.04 c 1.711,27.95 -1.531,32.43 -56.399,45.48 l -214.761,51.11 c -54.883,13.03 -59.797,10.51 -70.852,-15.22 l -6.816,-15.64 c -4.61,-3.86 -18.035,-0.67 -20.41,4.85 8.64,31.25 16.191,60.3 22.851,88.33 6.524,27.44 12.891,56.79 19.219,88.51 4.609,3.82 18.039,0.65 20.43,-4.87 l -0.977,-17.04 c -1.731,-27.95 1.543,-32.42 56.394,-45.48 l 214.778,-51.1"
         style="fill:#231f20;fill-opacity:1;fill-rule:nonzero;stroke:none"
         id="path86" />
      <path
         d="m 820.996,3483.67 c 29.902,-13.98 50,-22.04 65.984,-17.58 15.461,4.72 27.715,18.2 36.868,37.8 43.945,94.09 -24.825,165.31 -98.797,199.88 -97.934,45.72 -180.278,21.21 -226.25,-77.23 -6.86,-14.69 -8.957,-26.29 -6.156,-31.59 2.835,-5.29 12.921,-10.66 29.789,-18.55 z m -208.789,2.74 c -51.66,24.15 -62.527,27.88 -76.934,4.13 l -5.91,-9.82 c -5.242,-4.18 -21.043,3.2 -18.523,9.96 18.625,46.98 36.25,90.43 63.183,148.07 20.848,44.63 46.016,87.19 77.149,118.39 58.855,59.3 141.328,68.5 209.324,36.74 72.902,-34.06 115.383,-96.29 117.192,-173.34 1.218,-45.63 -12.551,-93.53 -38.723,-149.56 -11.945,-25.56 -27.91,-51.24 -37.063,-70.82 -12.183,-26.13 -24.605,-54.11 -37.984,-85.63 -5.305,-2.83 -18.359,3.27 -19.047,8.89 l 5.149,18.14 c 7.648,26.24 4.816,31.55 -45.235,54.93 l -192.578,89.92"
         style="fill:#231f20;fill-opacity:1;fill-rule:nonzero;stroke:none"
         id="path88" />
      <path
         d="m 1031.54,3963.02 c 8.3,11.01 8.69,14.5 -6.67,20.07 l -48.21,16.84 c -25.664,8.84 -50,17.43 -63.332,20.7 6.938,-12.74 21.262,-35.59 37.895,-59.42 l 26.875,-39.08 c 9.695,-14.09 12.937,-12.77 21.972,-0.78 z m -13.31,-70.43 c -8.66,-11.51 -9.27,-13.31 -2.34,-23.05 l 42.19,-59.67 c 7.42,-10.1 10.88,-13.47 14.72,-16.38 2.88,-2.17 8.65,-0.49 21.16,11.11 l 13.24,12.57 c 5.54,0.34 17.28,-7.03 16.06,-13.67 -13.62,-16.04 -28.09,-35.18 -43.75,-54.94 -12.3,-16.27 -19.19,-28.38 -35.81,-50.44 -6.86,-3.09 -16.55,4.99 -17.87,11.24 l 8.35,14.01 c 7.23,12.6 10.61,25.08 -1.9,47.31 -13.02,22.61 -29.53,48.59 -54.253,87.58 l -84.355,131.35 c -21.875,33.81 -31.758,55.57 -46.746,64.62 12.078,26.98 2,62.43 2.703,63.38 4.719,6.23 9.277,7.3 17.922,3.79 16.773,-6.64 38.844,-14.29 81.914,-27.98 l 236.985,-76.61 c 36.35,-11.62 50.61,-15.63 66.87,-0.08 l 16.62,16.04 c 4.57,1.08 16.8,-6.67 16.41,-13.26 -18.31,-22.26 -38.33,-47.77 -57.13,-72.67 -18.09,-23.96 -31.71,-42.97 -47.38,-65.68 -6.84,-3.1 -17.63,3.54 -17.48,11.69 l 9.18,17.14 c 6.39,12.48 4.49,16.92 1.61,19.09 -3.37,2.54 -17.39,7.86 -39.46,15.48 l -50.97,18.16 c -9.48,3.4 -13.33,0.3 -25.98,-16.47 l -40.51,-53.66"
         style="fill:#231f20;fill-opacity:1;fill-rule:nonzero;stroke:none"
         id="path90" />
      <path
         d="m 1562.35,4241.22 c -44.65,-32.42 -81.47,-39.89 -95.89,-41.48 -16.98,3.98 -48.67,34.35 -72.61,67.33 -1.2,8.79 9.62,17.36 17.38,14.84 32.62,-24.48 97.53,-45.5 138.79,-15.54 35.92,26.09 34.42,62.81 16.8,87.08 -28.54,39.3 -82.35,35.79 -122.04,29.2 -47.61,-7.91 -107.11,-6.64 -142,41.4 -40.31,54.47 -25.09,123.34 45.27,174.47 15.98,11.62 37.3,24.12 60.93,32.42 7.72,2.63 12.8,4.83 19.34,8.08 11.62,-7.84 35.5,-30.51 59.13,-63.04 1.81,-7.59 -9.99,-16.87 -17.87,-15.21 -26.22,18.78 -72.83,39.04 -107.76,13.66 -32.03,-23.28 -34.33,-56.82 -16.7,-81.09 16.21,-22.32 50.9,-28.24 84.32,-23.24 l 44.36,6.29 c 41.73,5.84 100.49,5.55 139.29,-47.84 43.33,-59.67 22.53,-134.09 -50.74,-187.33"
         style="fill:#231f20;fill-opacity:1;fill-rule:nonzero;stroke:none"
         id="path92" />
      <path
         d="m 1684.2,4737.85 c -6.2,13.01 -7.49,15.72 -20.48,9.49 l -33.59,-16.03 c -39.55,-18.88 -40.58,-45.98 -37.94,-93.26 -4.96,-6.38 -15.75,-10.19 -22.37,-4.72 -6.47,42.82 -19.8,77.69 -26.1,100.63 1.4,2.67 3.59,5.04 6.3,6.33 2.71,1.29 5.66,2.05 8.62,1.47 7.1,-7.94 9.77,-9.33 50.93,10.35 l 201.51,96.19 c 35.75,17.09 43.61,21.5 43.04,35.21 1.66,2.12 3.03,3.43 6.28,4.97 3.24,1.57 8.08,1.2 9.93,0.11 3.37,-21 20.54,-66.7 36.36,-97.05 -0.37,-6.18 -14.48,-14.24 -19.27,-11.21 -25.75,30.28 -45.51,52.12 -86.13,32.72 l -32.49,-15.53 c -12.99,-6.2 -13.85,-8.59 -7.13,-22.68 l 114.06,-238.89 c 24.05,-50.37 29.37,-53.16 55.3,-44.76 l 22.97,7.62 c 5.35,-1.43 11.28,-13.89 9.04,-18.95 -35.73,-15.72 -63.07,-28.12 -87.43,-39.76 -26,-12.4 -53.91,-26.4 -91.31,-45.59 -5.88,1.17 -11.84,13.65 -9.06,18.95 l 23.07,14.35 c 23.1,14.36 24.02,20.78 -0.05,71.15 l -114.06,238.89"
         style="fill:#231f20;fill-opacity:1;fill-rule:nonzero;stroke:none"
         id="path94" />
      <path
         d="m 2149.85,4719.27 c 13.33,3.66 15.73,6.18 6.99,19.95 l -27.93,42.72 c -14.9,22.63 -28.91,44.29 -37.5,55 -2.25,-14.3 -4.84,-41.13 -6.25,-70.11 l -2.54,-47.34 c -0.88,-17.04 2.44,-17.99 16.89,-14.01 z m -53.46,-47.63 c -13.87,-3.81 -15.43,-4.86 -15.92,-16.8 l -2.98,-72.95 c -0.29,-12.52 0.39,-17.31 1.66,-21.92 0.93,-3.49 6.49,-5.69 23.49,-4.13 l 18.16,1.86 c 4.59,-3.08 9.38,-16.07 4.4,-20.56 -20.56,-4.39 -43.66,-10.75 -68.17,-16.82 -19.63,-5.4 -32.42,-10.79 -59.06,-18.09 -7.3,1.73 -10.06,14.04 -7.3,19.77 l 15.19,6.04 c 13.38,5.53 23.63,13.33 27.29,38.57 3.47,25.83 6.3,56.45 10.5,102.37 l 13.28,155.4 c 3.32,40.08 8.79,63.35 2.45,79.64 25.97,13.98 39.64,48.19 40.77,48.5 7.52,2.05 11.76,0.12 16.45,-7.91 9.28,-15.5 22.07,-35.01 47.76,-72.09 l 140.91,-205.13 c 21.63,-31.34 30.47,-43.24 52.84,-40.82 l 22.94,2.56 c 4.25,-1.95 9.23,-15.5 4.99,-20.41 -28.13,-6.46 -59.48,-14.45 -89.56,-22.7 -28.9,-7.93 -51.31,-14.7 -77.58,-23.17 -7.33,1.73 -11.82,13.54 -6.69,19.94 l 17.67,7.96 c 12.7,5.96 13.87,10.64 12.89,14.11 -1.07,4.06 -8.93,16.83 -21.77,36.31 l -29.2,45.46 c -5.47,8.47 -10.4,8.35 -30.67,2.78 l -64.74,-17.77"
         style="fill:#231f20;fill-opacity:1;fill-rule:nonzero;stroke:none"
         id="path96" />
      <path
         d="m 2472.31,4965.17 c -1.17,14.35 -1.41,17.36 -15.77,16.19 l -37.06,-3.03 c -43.7,-3.56 -54.29,-28.52 -68.65,-73.66 -6.88,-4.15 -18.36,-3.91 -22.61,3.59 9.23,42.31 9.18,79.61 11.48,103.29 2.24,2 5.12,3.42 8.1,3.66 2.98,0.25 6.06,-0.09 8.6,-1.7 3.81,-9.92 5.81,-12.16 51.27,-8.45 l 222.51,18.16 c 39.45,3.23 48.38,4.55 52.73,17.56 2.3,1.39 4.05,2.12 7.62,2.41 3.61,0.29 8.01,-1.75 9.32,-3.43 -4.29,-20.83 -4.54,-69.62 -0.53,-103.62 -2.59,-5.64 -18.66,-8.13 -22.03,-3.59 -13.28,37.45 -23.97,64.87 -68.79,61.21 l -35.89,-2.93 c -14.36,-1.17 -16.02,-3.1 -14.75,-18.68 l 21.53,-263.77 c 4.55,-55.61 8.5,-60.11 35.75,-61.52 l 24.17,-1.03 c 4.44,-3.24 5.61,-16.99 1.71,-20.95 -38.97,-1.95 -68.95,-3.81 -95.85,-6 -28.71,-2.34 -59.77,-5.47 -101.57,-10.11 -5.07,3.22 -6.2,16.97 -1.71,20.95 l 26.66,5.17 c 26.71,5.21 29.84,10.89 25.3,66.5 l -21.54,263.78"
         style="fill:#231f20;fill-opacity:1;fill-rule:nonzero;stroke:none"
         id="path98" />
      <path
         d="m 2933.11,4852.79 c -1.96,-16.7 -1.47,-17.95 14.64,-19.85 l 41.12,-4.83 c 30.95,-3.67 38.57,-0.34 47.95,27.57 l 4.68,14.55 c 4.74,4.26 19.63,2.5 21.98,-3.26 -3.42,-18.91 -6.55,-40.3 -9.18,-62.93 -2.69,-22.63 -4.64,-44.16 -5.67,-63.34 -3.61,-5 -18.6,-3.85 -22.17,2.01 l -1.17,15.26 c -2.63,29.3 -9.18,34.91 -40.18,38.55 l -41.12,4.83 c -16.06,1.9 -16.74,1.36 -18.84,-16.51 l -8.35,-70.89 c -3.23,-27.41 -3.13,-46.75 2.83,-57.74 6.49,-11.62 17.28,-17.73 60.74,-22.85 51.86,-6.1 72.36,-6.72 113.04,56.76 5.52,6.01 20.16,1.85 21.68,-5.57 -6.01,-30.71 -26.03,-77.29 -36.28,-92.4 -31.4,4.93 -88.53,12.25 -137.4,18.02 l -77.45,9.1 c -28.61,3.37 -57.91,6.23 -102.73,10.3 -4.3,4.13 -2.64,18.44 2.49,20.85 l 28.47,0.88 c 27.34,1 31.35,4.15 37.79,58.99 l 26.17,222.24 c 6.35,54.22 3.23,58.22 -22.95,66.75 l -14.55,4.74 c -4.93,4.19 -2.73,17.84 3.62,20.7 27.93,-4.49 57.03,-8.53 85.64,-11.9 l 126.27,-14.86 c 38.18,-4.49 72.17,-7.91 80.08,-7.62 -0.49,-9.62 -1.37,-53 -3.13,-93.29 -3.12,-6.27 -16.99,-5.83 -22.31,0.22 -4.1,21.64 -10.35,40.48 -17.14,49.73 -9.96,12.68 -27,21.93 -56.15,25.38 l -47.71,5.61 c -19.68,2.31 -19.77,1.12 -22.41,-20.93 l -12.3,-104.27"
         style="fill:#231f20;fill-opacity:1;fill-rule:nonzero;stroke:none"
         id="path100" />
      <path
         d="m 3523.24,4783.87 c 24.12,50.29 22.37,55.11 0.39,71.63 l -12.2,9.21 c -2.79,5.32 2.34,17.48 9.86,17.89 25.49,-13.55 52.25,-27.05 78.22,-39.5 26.47,-12.72 53.27,-24.88 79.74,-36.28 2.78,-5.32 -2.93,-17.21 -8.84,-18.38 l -13.96,4.05 c -26.47,7.35 -31.74,4.59 -55.86,-45.73 l -59.96,-124.95 c -30.38,-63.29 -56.74,-136.45 25.48,-175.88 69.24,-33.2 119.34,17.28 154.89,91.38 l 31.39,65.46 c 21,43.82 38.53,85.96 39.36,102.87 0.58,13.71 -9.77,22.64 -23.1,32.36 l -13.28,9.71 c -2.24,6.4 4.01,16.7 8.79,18.42 28.71,-15.09 49.56,-25.77 71.73,-36.38 20.02,-9.61 40.28,-18.66 61.38,-27.48 1.66,-4.78 -2.45,-16.13 -8.84,-18.38 l -10.79,2.52 c -15.63,3.49 -27.44,5.17 -37.75,-3.86 -12.69,-11.2 -34.57,-51.27 -55.61,-95.09 l -29.01,-60.57 c -24.41,-50.85 -51.56,-95.04 -97.16,-113.77 -35.99,-14.02 -81.94,-8.6 -125.79,12.4 -41.11,19.73 -74.75,43.85 -92.57,81.67 -17,36.74 -9.67,82.47 18.6,141.42 l 64.89,135.26"
         style="fill:#231f20;fill-opacity:1;fill-rule:nonzero;stroke:none"
         id="path102" />
      <path
         d="m 4111.62,4164.24 c -24.71,-30.2 -48.63,-59.47 -60.25,-75.59 -7.82,-2.9 -25,2.62 -36.14,11.75 -0.48,0.36 3.52,36.62 3.76,81.42 l 1.32,220.65 c 0,55.03 0.69,87.06 -2,100.88 -6.1,-2.73 -12.6,-10.64 -26.61,-27.83 l -73.73,-90.14 c -30.76,-37.65 -57.42,-73.99 -62.6,-90.72 -3.81,-13.19 4.25,-25.17 14.84,-36.92 l 11.43,-12.5 c 0.68,-6.75 -8.2,-15.74 -13.28,-16.26 -24.32,21.44 -42.53,37.11 -61.13,52.3 -17.19,14.06 -34.77,27.67 -53.13,41.16 -0.54,5.08 6.54,15.61 13.28,16.26 l 9.04,-5.05 c 14.45,-7.94 26.41,-12.28 38.08,-5.56 15.38,8.37 45.27,42.06 76.03,79.7 l 96.53,118.02 c 20.85,25.57 26.51,33.38 29.05,42.14 2.74,10.97 0.78,21.85 -13.57,37.48 l -11.52,12.47 c -0.2,6.4 9.37,17.17 15.18,14.87 21.05,-18.77 43.9,-38.26 62.94,-53.83 15.82,-12.92 29.69,-23.46 40.24,-30.64 -12.5,-24.71 -11.14,-84.69 -10.01,-168.6 l 1.41,-77.93 c 0.68,-40.87 0.88,-68.17 2.83,-87.58 5.67,3.12 12.11,11.02 18.95,19.38 l 52.44,64.12 c 30.76,37.64 57.42,74 62.55,90.72 3.81,13.18 -3.76,24.8 -14.8,36.91 l -11.03,12.11 c -0.68,6.77 8.25,15.77 13.28,16.39 24.37,-21.44 42.09,-36.72 61.13,-52.3 17.19,-14.06 34.33,-27.27 53.23,-41.29 0.48,-5.07 -6.55,-15.57 -13.33,-16.26 l -9.53,5.45 c -13.57,8.01 -25.44,11.53 -37.59,5.18 -15.38,-8.35 -45.71,-41.68 -76.52,-79.33 l -90.77,-111.03"
         style="fill:#231f20;fill-opacity:1;fill-rule:nonzero;stroke:none"
         id="path104" />
      <path
         d="m 4263.38,3968.37 c -43.02,-36.52 -43.9,-41.97 -29.69,-66.14 l 8.6,-14.77 c 0.34,-5.99 -10.55,-14.45 -16.41,-13.09 -20.07,25.49 -38.67,48.32 -56.89,69.83 -18.65,21.94 -38.52,44.45 -60.4,68.38 -0.39,5.98 10.16,14.92 16.02,13.57 l 13.18,-10.86 c 21.49,-17.95 27.05,-17.97 70.07,18.53 l 168.46,142.9 c 43.02,36.49 43.89,41.96 29.69,66.13 l -8.55,14.78 c -0.39,5.97 10.16,14.91 16.02,13.59 20.02,-25.49 38.96,-48.78 57.61,-70.72 18.27,-21.52 38.14,-44 60.06,-68 0.3,-5.98 -10.2,-14.91 -16.06,-13.59 l -13.14,10.88 c -21.53,17.94 -27.05,17.97 -70.11,-18.53 l -168.46,-142.89"
         style="fill:#231f20;fill-opacity:1;fill-rule:nonzero;stroke:none"
         id="path106" />
      <path
         d="m 4519.34,3698.94 c -77.98,-11.17 -126.96,-21.68 -162.85,-27.25 -5.03,2.56 -10.3,7.81 -14.89,15.53 -3.71,6.17 -4.98,11.74 -4.3,16.45 10.55,13.99 32.52,39.11 45.71,56.81 l 159.18,209.06 c 37.64,49.22 37.11,52.39 31.35,71.31 l -7.23,23.68 c 3.22,7.5 13.38,11.52 18.75,8.45 15.23,-26.56 24.41,-44.14 40.48,-70.9 14.21,-23.65 27.98,-45.48 47.9,-76.17 -0.64,-5.98 -10.74,-11.33 -17.19,-11.04 l -12.35,13.58 c -7.62,8.03 -12.85,9.76 -17.53,6.98 -4.1,-2.46 -20.71,-23.65 -44.14,-54.54 l -88.58,-114.77 c -14.65,-18.65 -23.44,-30.89 -29.98,-39.74 11.23,1.14 28.81,3.32 47.95,6.41 l 59.77,10.01 c 40.13,6.62 110.69,19.63 131.88,23.96 11.92,2.26 18.51,4.12 21.58,5.97 3.62,2.18 4.74,4.97 0.44,19.14 l -5.37,17.08 c 1.61,6.59 12.4,13.08 18.7,8.32 13.53,-24.81 24.76,-44.65 36.48,-64.21 10.5,-17.48 20.31,-32.62 30.27,-46.73 0.39,-5.34 -11.62,-13.28 -16.89,-11.53 l -10.6,11.82 c -11.18,12.84 -20.17,17.27 -35.01,17.46 -23.73,1.13 -59.86,-1.69 -112.01,-9.23 l -111.52,-15.91"
         style="fill:#231f20;fill-opacity:1;fill-rule:nonzero;stroke:none"
         id="path108" />
      <path
         d="m 4729,3457.29 c -15.82,-5.7 -16.7,-6.67 -11.23,-21.91 l 14.07,-38.96 c 10.59,-29.37 16.99,-34.72 46.09,-30.57 l 15.14,2.27 c 5.95,-2.34 11.03,-16.45 7.03,-21.22 -18.51,-5.39 -39.06,-12.15 -60.5,-19.89 -21.44,-7.74 -41.55,-15.65 -59.23,-23.17 -6.1,0.97 -11.72,14.89 -8.1,20.68 l 13.08,7.91 c 25.1,15.43 27.15,23.83 16.55,53.19 l -14.01,38.95 c -5.57,15.25 -6.3,15.6 -23.24,9.49 l -67.19,-24.24 c -25.98,-9.37 -43.21,-18.14 -50.39,-28.36 -7.52,-11.02 -8.11,-23.37 6.74,-64.59 17.72,-49.12 26.37,-67.72 101.37,-75.75 7.81,-2.27 10.64,-17.18 4.68,-21.9 -30.17,-8.32 -80.76,-11.28 -98.92,-8.89 -9.67,30.35 -28.62,84.75 -45.31,131.04 l -26.47,73.41 c -9.81,27.09 -20.36,54.54 -36.77,96.48 1.76,5.74 15.29,10.62 19.78,7.13 l 13.52,-25.1 c 13.14,-23.99 17.73,-26.14 69.68,-7.42 l 210.55,75.98 c 51.37,18.55 53.56,23.17 49.51,50.39 l -2.3,15.13 c 1.52,6.3 14.7,10.43 20.17,6.01 8.45,-26.95 17.87,-54.81 27.64,-81.91 l 43.16,-119.7 c 13.09,-36.14 25.2,-68.09 29.01,-75.02 -8.84,-3.84 -48.05,-22.46 -84.87,-38.92 -7.03,0 -12.84,12.6 -9.76,20.07 17.48,13.33 31.54,27.34 36.81,37.55 6.89,14.6 7.52,33.98 -2.44,61.64 l -16.31,45.17 c -6.74,18.63 -7.81,18.21 -28.71,10.69 L 4729,3457.29"
         style="fill:#231f20;fill-opacity:1;fill-rule:nonzero;stroke:none"
         id="path110" />
      <path
         d="m 4819.53,3051.38 c -20.8,-2.93 -22.36,-4.98 -17.38,-40.04 3.03,-21.39 10.11,-33.14 23,-42.82 11.57,-8.68 32.17,-17.29 67.23,-12.34 53.47,7.55 83.5,43.93 76.96,90.28 -3.42,24.37 -5.38,25.3 -33.94,21.27 z m 63.97,92.09 c 59.42,8.37 65.82,10.49 65.82,35.95 l 0.14,16.39 c 2.1,6.37 17,8.47 20.95,1.76 9.28,-44.17 18.21,-90.19 26.17,-146.66 7.13,-50.51 5.57,-94.99 -4.98,-119.5 -15.33,-37.34 -42.48,-59.36 -80.56,-64.73 -52.89,-7.47 -80.47,25 -98.05,50.42 -3.81,5.52 -7.33,5.03 -13.48,1.12 -74.12,-50.47 -115.23,-81.13 -135.55,-113.11 -10.35,-17.21 -11.71,-33.16 -11.03,-42.16 -2.25,-5.76 -11.13,-7.03 -15.14,-4.57 -5.47,8.93 -9.37,27.78 -11.96,46.22 -7.71,54.66 7.03,91.91 46.14,124.09 28.81,23.47 55.96,41.26 85.55,59.38 15.04,9.4 18.46,19.58 16.36,34.42 -2.93,20.8 -4.3,21.83 -16.17,20.17 l -73.14,-10.33 c -54.64,-7.74 -58.3,-11.89 -59.28,-39.3 l -0.68,-16.46 c -2.44,-4.59 -16.7,-6.59 -20.8,-2.83 -3.32,31.66 -6.54,59.05 -10.55,87.57 -4.2,29.72 -8.49,55.76 -14.06,86.45 2.88,5.28 17.19,7.28 20.8,2.95 l 5.22,-15.62 c 8.55,-26.08 13.24,-29.05 67.88,-21.34 l 210.4,29.72"
         style="fill:#231f20;fill-opacity:1;fill-rule:nonzero;stroke:none"
         id="path112" />
      <path
         d="m 4613.53,2612.07 c 2.97,55.1 20.36,88.4 28.22,100.61 13.77,10.67 57.27,16.16 98.04,13.96 7.57,-4.59 7.43,-18.41 0.54,-22.85 -39.55,-9.88 -96.78,-47.07 -99.51,-97.97 -2.34,-44.32 27.05,-66.31 57.03,-67.92 48.54,-2.59 79.69,41.38 99.61,76.34 23.83,41.97 62.31,87.38 121.58,84.21 67.73,-3.03 111.62,-58.24 106.99,-145.07 -1.08,-19.78 -4.79,-44.19 -13.24,-67.77 -2.83,-7.65 -4.29,-12.99 -5.86,-20.1 -13.47,-4.1 -46.09,-8.35 -86.23,-6.2 -7.03,3.37 -6.83,18.39 -0.58,23.43 31.1,8.58 76.17,31.99 78.51,75.1 2.1,39.53 -22.46,62.45 -52.44,64.06 -27.54,1.47 -54,-21.72 -71.19,-50.85 l -23.05,-38.4 c -21.77,-36.06 -59.03,-81.52 -124.9,-78 -73.68,3.95 -118.36,66.99 -113.52,157.42"
         style="fill:#231f20;fill-opacity:1;fill-rule:nonzero;stroke:none"
         id="path114" />
      <path
         d="m 4662.99,2252.5 c -55.23,11.33 -60.06,8.64 -70.31,-17.41 l -6.3,-15.84 c -4.5,-3.99 -17.87,-0.62 -20.46,4.69 7.71,31.51 14.21,60.17 19.87,87.81 5.81,28.22 11.18,57.71 16.55,89.72 4.5,3.98 17.97,1.2 20.56,-4.22 l -0.44,-17.06 c -0.83,-27.98 2.54,-32.36 57.76,-43.69 l 216.17,-44.35 c 55.27,-11.33 60.06,-8.64 70.31,17.4 l 6.35,15.85 c 4.49,3.97 17.97,1.19 20.55,-4.23 -7.66,-31.49 -14.3,-60.76 -20.06,-88.98 -5.67,-27.62 -11.14,-57.13 -16.46,-89.02 -4.49,-3.98 -18.02,-1.2 -20.56,4.22 l 0.39,17.07 c 0.88,27.98 -2.53,32.35 -57.71,43.67 l -216.21,44.37"
         style="fill:#231f20;fill-opacity:1;fill-rule:nonzero;stroke:none"
         id="path116" />
      <path
         d="m 4841.31,1925.64 c 13.48,-5.15 16.31,-6.23 21.39,7.25 l 13.33,34.77 c 15.67,40.91 -2.3,61.28 -36.77,93.75 -0.78,8 4.39,18.24 12.99,18.82 34.18,-26.56 67.87,-42.67 88.23,-54.96 0.83,-2.88 0.88,-6.12 -0.2,-8.9 -1.07,-2.82 -2.68,-5.4 -5.22,-7.01 -10.65,0.85 -13.53,0.02 -29.79,-42.6 l -79.78,-208.6 c -14.16,-37.01 -16.8,-45.6 -6.94,-55.17 0.25,-2.7 0.2,-4.59 -1.12,-7.97 -1.32,-3.36 -5.03,-6.39 -7.18,-6.88 -16.89,12.9 -60.84,34.18 -93.16,45.26 -4,4.74 0.68,20.31 6.25,21.44 39.5,-4.2 68.85,-6.44 84.96,35.59 l 12.84,33.65 c 5.13,13.48 4.1,15.78 -10.5,21.35 L 4563.38,1940 c -52.15,19.94 -57.91,18.28 -70.95,-5.66 l -11.38,-21.37 c -4.88,-2.64 -17.77,2.29 -19.62,7.35 15.03,36.04 26.36,63.89 35.98,89.13 10.3,26.94 20.85,56.33 34.77,96.08 5.08,3.19 17.97,-1.74 19.63,-7.5 l -6.89,-26.32 c -6.83,-26.29 -3.03,-31.59 49.12,-51.53 l 247.27,-94.54"
         style="fill:#231f20;fill-opacity:1;fill-rule:nonzero;stroke:none"
         id="path118" />
      <path
         d="m 4368.85,1575.72 c -46.97,30.08 -52.98,29.59 -70.56,8.79 l -15.48,-18.55 c -5.27,-1.57 -16.89,5.86 -17.67,11.48 22.07,32.17 38.38,56.6 53.9,80.82 15.53,24.22 31.25,49.81 49.32,80.18 5.57,2.05 17.19,-5.37 17.68,-11.33 l -8.5,-18.81 c -11.04,-25 -9.42,-30.31 37.55,-60.39 l 25.24,-16.13 c 25.3,-16.21 33.69,-20.9 68.85,-24.91 l 162.74,-19.43 c 27.2,-3.22 38.14,-3.81 52.49,11.92 l 14.07,15.23 c 6.93,1.95 18.75,-6.35 16.4,-13.38 -15.62,-22.07 -28.07,-40.37 -47.17,-70.16 -19.72,-30.82 -35.74,-56.89 -45.7,-74.76 -4.93,-3.22 -17.19,3.18 -18.31,10.31 l 6.93,19.77 c 3.81,10.35 3.76,14.7 3.23,15.04 -4.06,2.54 -13.23,4.88 -43.75,9.47 l -69.29,10.94 c -21.48,3.02 -47.85,6.4 -64.36,8.39 15.39,-30.46 35.65,-63.37 52.64,-93.49 23.54,-42.15 35.74,-59.92 41.8,-63.83 3.03,-1.89 8.25,1.86 18.06,12.7 l 9.43,10.31 c 5.13,2.38 18.07,-5.14 17.33,-11.68 -13.91,-19.53 -26.07,-37.4 -37.69,-55.57 -12.31,-19.18 -21.83,-35.15 -30.18,-50.68 -5.96,-4.73 -18.06,3.03 -18.99,9.33 l 5.91,14.75 c 4.29,10.1 6.88,21.91 3.36,31.97 -4.73,13.77 -14.84,38.05 -43.21,90.43 l -37.21,68.66 c -15.33,28.37 -24.7,41.5 -53.51,59.96 l -35.35,22.65"
         style="fill:#231f20;fill-opacity:1;fill-rule:nonzero;stroke:none"
         id="path120" />
      <path
         d="m 2216.5,504.262 c -11.96,-49.813 -9.71,-56.942 20.22,-66.703 l 25.05,-8.008 c 4.73,-5.082 0.19,-21.09 -6.5,-21.481 -22.07,6.641 -59.27,16.211 -97.9,25.481 -41.06,9.871 -78.56,18.211 -101.32,22.371 -5.76,3.32 -2.49,19.668 4.01,22.07 l 25.98,-4.262 c 31.1,-4.82 36.32,0.489 48.29,50.29 l 48.87,203.582 c 9.87,41.109 9.67,51.007 -16.84,61.328 l -27.74,10.64 c -4.83,4.43 -1.9,19.532 3.96,22.071 26.46,-2.399 57.32,-2.539 83.88,-1.719 29.35,1.527 55.86,7.68 60.21,6.598 3.12,-0.68 7.03,-3.61 7.08,-8.879 -4.69,-14.071 -12.21,-42.539 -19.68,-73.641 L 2216.5,504.262"
         style="fill:#231f20;fill-opacity:1;fill-rule:nonzero;stroke:none"
         id="path122" />
      <path
         d="m 2477.64,702.211 c -2.59,-29.981 16.79,-58.602 67.18,-85.449 20.81,10.449 33.99,36.269 36.63,66.886 3.76,43.993 -21.49,71.231 -47.03,73.442 -29.34,2.539 -53.8,-20.41 -56.78,-54.879 z m 87.84,-248.539 c 4.34,50.387 -28.47,80.219 -79.25,109.668 -24.9,-21 -36.86,-47.559 -39.5,-78.219 -3.86,-44.629 19.19,-83.211 60.64,-86.82 28.08,-2.442 54.84,17.129 58.11,55.371 z m -201.61,31.539 c 4.1,47.859 40.72,77.449 93.31,98.641 -37.7,25.097 -63.04,58.73 -59.13,104 5.37,62.5 61.08,105.269 140.13,98.437 72.12,-6.148 119.78,-49.508 114.55,-110.059 -3.9,-45.308 -41.65,-65.82 -77.1,-82.031 45.76,-28.379 80.47,-65.429 75.2,-126.66 -5.13,-59.957 -56.05,-106.348 -156.2,-97.66 -74.61,6.391 -136.77,45.801 -130.76,115.332"
         style="fill:#231f20;fill-opacity:1;fill-rule:nonzero;stroke:none"
         id="path124" />
      <path
         d="m 2953.27,802.109 c 5.13,0.391 7.28,-2.64 7.57,-7.129 -3.91,-24.71 -15.43,-51.859 -30.22,-68.359 l -143.12,-26.66 c -8.89,-1.949 -11.62,-8.59 -13.33,-19.629 l -2.78,-14.941 c -2.74,-15 5.76,-16.95 18.65,-17.282 34.13,-1.269 94.14,-5.859 132.62,-21.648 37.06,-15.172 71.63,-48.57 75.58,-101.602 4.89,-66.398 -30.91,-112.109 -81.74,-144.718 -50.87,-32.719 -116.4,-49.711 -169.97,-54.981 -9.91,3.75 -13.91,23.34 -6.05,29.68 45.85,5.371 96.92,18.109 125.58,38.23 36.04,25.149 55.57,56.11 52.98,90.578 -6.74,91.313 -103.22,93.852 -167.48,94.243 -20.51,-0.289 -23.48,5.269 -20.75,20.25 l 27.44,149.711 c 3.22,16.949 7.08,17.25 27.3,21.289 l 167.72,32.968"
         style="fill:#231f20;fill-opacity:1;fill-rule:nonzero;stroke:none"
         id="path126" />
      <path
         d="m 3273.14,525.84 c 12.02,-49.77 17.24,-55.078 48.34,-50.199 l 25.93,4.3 c 6.5,-2.402 9.77,-18.711 4.01,-22.07 -22.71,-4.199 -60.11,-12.601 -98.69,-21.871 -41.01,-9.961 -78.22,-19.59 -100.29,-26.23 -6.64,0.351 -11.18,16.359 -6.49,21.441 l 25.05,8.051 c 29.88,9.82 32.08,16.949 20.06,66.699 l -49.17,203.379 c -9.91,41.012 -14.64,49.699 -42.92,46.871 l -29.49,-3.219 c -6.35,1.758 -10.59,16.539 -6.49,21.477 24.61,9.871 52.15,23.773 75.39,36.621 25.39,14.75 46.19,32.23 50.49,33.301 3.12,0.789 7.91,-0.09 10.35,-4.743 2.24,-14.589 8.54,-43.359 16.01,-74.449 l 57.91,-239.359"
         style="fill:#231f20;fill-opacity:1;fill-rule:nonzero;stroke:none"
         id="path128" />
      <path
         d="M 2700.12,45 C 1233.76,45 45,1233.55 45,2699.87 45,4166.32 1233.76,5355.01 2700.12,5355.01 4166.33,5355.01 5355,4166.32 5355,2699.87 5355,1233.55 4166.33,45 2700.12,45 Z M 2700,5400 C 1208.66,5400 0,4191.56 0,2700.13 0,1209.22 1208.66,0 2700,0 4191.11,0 5400,1209.22 5400,2700.13 5400,4191.56 4191.11,5400 2700,5400"
         style="fill:#231f20;fill-opacity:1;fill-rule:nonzero;stroke:none"
         id="path130" />
      <path
         d="M 2699.94,230 C 1335.78,230 230,1335.57 230,2699.99 230,4063.97 1335.78,5170.01 2699.94,5170.01 4064.15,5170.01 5170,4063.97 5170,2699.99 5170,1335.57 4064.15,230 2699.94,230 Z m 0.12,5050.01 C 1275.21,5280.01 120.004,4124.99 120.004,2700.22 120.004,1275.57 1275.21,120 2700.06,120 4124.92,120 5280,1275.57 5280,2700.22 5280,4124.99 4124.92,5280.01 2700.06,5280.01"
         style="fill:#231f20;fill-opacity:1;fill-rule:nonzero;stroke:none"
         id="path132" />
      <path
         d="M 4427.5,2699.76 C 4427.5,1745.64 3654.01,972.5 2699.85,972.5 1745.76,972.5 972.5,1745.64 972.5,2699.76 c 0,954.31 773.26,1727.75 1727.35,1727.75 954.16,0 1727.65,-773.44 1727.65,-1727.75 z M 2699.92,4485.01 C 1714.18,4485.01 915,3685.82 915,2699.88 915,1713.95 1714.18,915 2699.92,915 3685.87,915 4485,1713.95 4485,2699.88 c 0,985.94 -799.13,1785.13 -1785.08,1785.13"
         style="fill:#231f20;fill-opacity:1;fill-rule:nonzero;stroke:none"
         id="path134" />
      <path
         d="m 4003.18,2885.01 c 45.5,-71.45 158.75,-93.75 224.17,-114.59 21.76,-6.92 45,-19.16 46.66,-56.66 -132.08,-46.25 -269.35,-64.85 -405.82,-60 -162.09,168.75 -183.75,318.33 -174.55,446.48 54.55,-79.4 90.96,-109.51 141,-159.56 31.87,57.66 73.96,126.41 112.21,179.17 9.7,-79 18.88,-176.02 56.33,-234.84 z M 2289.8,3357.99 c 57.15,72.89 115.38,135.48 115.38,246.98 0,93.01 -27.54,169.21 -64.2,213.95 8.94,22.77 14.31,45.95 14.31,69.93 0,164.73 -95.5,275.37 -180.05,352.19 21.96,-59 36.97,-90.91 36.97,-144.89 0,-72.27 -13.52,-140.91 -75.52,-232.43 -10.33,65.08 -70.35,149.1 -134.14,207.15 10.14,-60.25 16.1,-94.38 16.1,-130.18 0,-80.58 -88.83,-269.45 -88.83,-330.66 0,-81.21 36.01,-165.61 86.89,-252.04 H 1725.54 L 1882.1,3116.9 h 36.67 l 34.21,-111.99 15.5,-285.69 c -136.4,-28.49 -250,-50.07 -359.48,-59.98 185.6,208.15 181.46,472.72 104.96,590.97 -34.23,-108.95 -75.48,-159.36 -137.08,-220.95 -52.08,89.44 -107.93,163.21 -168.36,238.72 -5.97,-136.37 -21.33,-319.18 -66.53,-364.38 -71.68,-71.68 -179.43,-53.08 -243.4,-117.05 -60.62,-60.62 -13.44,-266.54 32.51,-454.93 51.83,-73.12 167.19,-118.99 343.46,-118.99 173.05,0 372.19,34.16 517.55,59.08 l 45.63,-829 -17.53,-90.42 134.77,-105.28 134.81,105.28 -17.57,90.42 44.28,815.96 c 57.04,-21.26 128.86,-42.01 207.08,-55.73 l 49.66,-915.6 -18.99,-97.65 145.75,-113.81 145.7,113.81 -18.99,97.71 49.71,915.46 c 78.12,13.7 150,34.43 207.03,55.69 l 44.33,-815.84 -17.57,-90.42 134.76,-105.28 134.86,105.28 -17.57,90.42 45.63,829 c 145.36,-24.92 344.5,-59.08 517.55,-59.08 176.27,0 291.63,45.87 343.46,118.99 45.95,188.39 93.13,394.31 32.5,454.93 -63.96,63.97 -171.72,45.37 -243.4,117.05 -45.19,45.2 -60.55,228.01 -66.52,364.38 -60.43,-75.51 -116.29,-149.28 -168.35,-238.72 -61.6,61.59 -102.87,112 -137.09,220.95 -76.5,-118.25 -80.64,-382.82 104.96,-590.97 -109.48,9.91 -223.08,31.49 -359.48,59.98 l 15.5,285.57 34.18,112.11 h 36.72 l 156.54,241.09 h -294.62 c 57.14,72.89 115.37,135.48 115.37,246.98 0,93.01 -27.53,169.21 -64.19,213.95 8.94,22.77 14.3,45.95 14.3,69.93 0,164.73 -95.49,275.37 -180.04,352.19 21.96,-59 36.97,-90.91 36.97,-144.89 0,-72.27 -13.52,-140.91 -75.52,-232.43 -10.33,65.08 -70.35,149.1 -134.14,207.15 10.13,-60.25 16.1,-94.38 16.1,-130.18 0,-80.58 -88.83,-269.45 -88.83,-330.66 0,-81.21 36.01,-165.61 86.89,-252.04 h -263.78 c 60.57,81.65 122.28,151.74 122.28,276.62 0,104.18 -29.17,189.52 -68.03,239.62 9.47,25.52 15.16,51.47 15.16,78.34 0,184.5 -101.21,308.41 -190.85,394.44 23.28,-66.08 39.18,-101.82 39.18,-162.26 0,-80.96 -14.32,-157.84 -80.04,-260.34 -10.94,72.9 -74.58,167.01 -142.18,232.01 10.73,-67.48 17.06,-105.7 17.06,-145.8 0,-90.26 -94.16,-301.77 -94.16,-370.35 0,-90.93 38.17,-185.46 92.11,-282.28 z m 1138.7,-694.31 c 164.42,-34.26 325.79,-64.72 459.66,-64.61 85.9,0.07 214.19,4.28 386.69,56.77 -6.72,-78.71 -30,-201.25 -56.19,-300.24 -42.14,-53.81 -142.31,-87.96 -293.22,-87.96 -168.38,0 -371.75,34.86 -515.21,59.44 z m -1975.36,456.17 c 38.26,-52.76 80.34,-121.51 112.22,-179.17 50.05,50.05 86.46,80.16 141.01,159.56 9.2,-128.15 -12.47,-277.73 -174.55,-446.48 -136.49,-4.85 -273.75,13.75 -405.84,60 1.67,37.5 24.9,49.74 46.67,56.66 65.42,20.84 178.67,43.14 224.17,114.59 37.46,58.82 46.62,155.84 56.32,234.84 z m 536.63,-792.77 c -143.46,-24.58 -346.83,-59.44 -515.21,-59.44 -150.91,0 -251.08,34.15 -293.22,87.96 -26.19,98.99 -49.47,221.53 -56.19,300.24 172.5,-52.49 300.79,-56.7 386.69,-56.77 133.88,-0.11 295.24,30.35 459.66,64.61 z m 1013.36,54.3 c 30.86,8.17 44.74,30.3 38.33,54.55 -5.68,21.45 -24.44,30.57 -40.2,34.15 l -15.05,3.5 c -16.03,3.72 -24.76,11.65 -27.11,20.61 -2.97,11.27 1.13,24.15 18.13,28.68 18.08,4.79 29.23,-7.5 35.37,-17.67 2.31,-0.98 6.15,0.25 6.69,2.44 -2.72,10 -8.48,23.45 -12.09,27.52 -10.47,-0.75 -19.27,-0.35 -30.36,-3.27 -31.04,-8.25 -42,-30.27 -36.43,-51.31 5.09,-19.15 22.58,-28.4 40.83,-33.07 l 10.51,-2.67 c 18.34,-4.7 26.67,-12.97 29.91,-25.12 3.44,-12.97 -3.09,-25.15 -19.31,-29.47 -20.82,-5.5 -38.37,14.18 -44.98,24.01 -2.12,1.05 -5.66,-0.12 -6.41,-2.59 3.34,-13.23 9.95,-27.17 14.95,-30.58 4.97,-1.44 17.68,-4.9 37.22,0.29 z m -162.28,-2.36 c 4.52,-22.91 2.7,-23.96 -7.22,-27.05 l -7.83,-2.44 c -1.22,-1.82 -0.27,-5.64 1.67,-6.15 9.62,2.34 22.77,5.16 32.3,7.03 l 24.62,4.86 c 25.3,4.96 43.93,8.42 53.54,9.89 1.86,6.42 3.35,23.75 2.87,33.1 -1.71,1.92 -5.53,1.83 -7.17,-0.08 -4.08,-18.97 -7.65,-25.95 -35.15,-31.15 -18.21,-3.38 -22.2,-2.6 -25.37,-0.07 -3.97,3.02 -5.91,10.75 -8.11,21.75 l -5.42,27.44 c -1.04,5.42 -0.89,5.88 4.01,6.89 l 10.41,2.03 c 18.82,3.7 22.55,4 25.88,-4.8 l 3.22,-8.33 c 1.95,-0.94 6.06,-0.14 6.88,1.57 -1.6,6.81 -3.5,14.26 -5.18,22.5 -1.54,7.97 -2.67,15.81 -3.57,21.68 -1.44,1.63 -5.51,0.85 -6.96,-1.03 l -0.07,-7.64 c -0.12,-9.66 -3.3,-10.52 -22.15,-14.22 l -10.33,-2.07 c -4.98,-0.96 -5.26,-0.78 -6.36,4.85 l -7.16,36.5 c -2.46,12.33 -2.55,12.76 6.76,14.57 l 14.48,2.87 c 5.82,1.14 12.44,1.78 17.65,1.47 7.31,-0.57 11.62,-5.14 17.52,-16.99 1.97,-0.95 6.21,0.33 6.73,2.23 -3.13,9.05 -7.78,25.85 -9.37,29.37 -2.75,-1 -15.23,-3.67 -29.05,-6.39 l -41.3,-8.16 c -9.53,-1.88 -19.72,-3.64 -27.99,-4.83 -1.54,-1.21 -1,-5.16 0.78,-6.36 l 3.56,0.25 c 10.43,0.7 12.56,0.21 17.07,-22.7 z M 2709,2367.5 c 0.84,-23.28 -1.1,-23.55 -11.38,-25.27 l -9.21,-1.46 c -1.45,-1.14 -1.11,-5.54 0.72,-6.34 14,0.96 24.35,1.59 34.01,1.92 9.67,0.37 19.54,0.52 32.33,0.56 1.74,0.94 1.78,4.93 0.19,6.39 l -7.96,0.57 c -10.36,0.72 -12.37,1.31 -13.22,24.59 l -3.53,94.88 c -0.36,9.24 -0.17,9.67 5.53,9.89 l 12.49,0.46 c 23.53,0.9 27.89,-3.12 31.38,-20.15 2.01,-1.47 5.72,-0.89 6.78,0.89 -0.92,7.03 0.15,25.98 1.97,35.07 -0.45,0.64 -1.56,1.03 -2.89,0.99 -0.88,-0.04 -1.76,-0.51 -2.58,-0.99 -2.46,-5.14 -5.72,-5.94 -16.52,-6.33 l -89.61,-3.37 c -14.93,-0.53 -18.01,-0.43 -19.3,5 -0.5,0.75 -1.38,0.94 -2.26,0.9 -1.07,-0.04 -1.95,-0.29 -2.33,-0.98 -1.26,-7.83 -4.06,-21.56 -7.37,-33.57 1,-2.16 5.6,-2.63 7.09,-1.28 7.49,18.1 13.31,20.74 33.52,21.49 l 12.3,0.48 c 5.7,0.19 5.96,-0.22 6.32,-9.44 z m -149.72,60.44 c -1.13,-6.94 -1.17,-7.36 9.25,-9.04 21.28,-3.38 32.74,5.48 35.99,26.1 2.7,17.17 -5.97,33.93 -24.86,36.91 -11.3,1.82 -11.58,1.2 -13.21,-8.8 z m -20.24,35.28 c 3.34,20.86 3.55,23.5 -6.5,26.19 l -5.53,1.57 c -1.25,1.75 -0.71,5.24 1.18,6.04 13.88,-0.87 32.43,-3.17 50.23,-6 16.94,-2.7 31.36,-7.21 40.13,-13.94 10.11,-7.64 16.56,-19.12 14.03,-34.76 -3.15,-19.96 -20.15,-27.51 -31.54,-30.14 -1.36,-0.46 -1.24,-2.27 -0.54,-3.7 12.73,-32.08 20.61,-52.28 29.49,-62.37 5.2,-6.17 11.33,-8.45 13.93,-9.08 0.89,-1.07 0.54,-3.44 -0.28,-4.43 -2.68,-0.22 -6.98,-0.24 -14.52,0.95 -20.84,3.34 -30.84,13.62 -40.85,35.9 -4.38,10.02 -8.61,22.97 -12.48,32.26 -2.83,7.14 -5.1,8.38 -12.25,9.54 -6.55,1.04 -6.79,0.86 -7.51,-3.71 l -4.42,-27.79 c -3.66,-23.05 -1.79,-23.99 8.21,-26.91 l 4.66,-1.43 c 1.24,-1.76 0.42,-5.63 -1.43,-6.22 -9.5,1.96 -19.24,3.74 -28.79,5.24 -9.59,1.54 -19.37,2.87 -29.45,4.04 -1.57,1.1 -1.63,5.14 0.61,6.35 l 4.88,-0.12 c 10.4,-0.33 12.45,0.04 16.11,23.05 z m -102.67,-22.69 c 6,-1.53 6.96,-1.3 6.56,4.23 l -2.41,27.87 c -0.92,12.29 -0.95,16.61 -1.64,18.37 l -0.44,0.11 c -1.23,-1.29 -4.51,-6.13 -10.68,-15.19 l -15.33,-22.67 c -3.73,-5.63 -3.34,-5.73 1.78,-7.06 z m -28,-3.02 c -5.57,1.41 -5.32,1.34 -8.72,-3.91 l -15.31,-23.34 c -7.47,-11.49 -6.72,-12.14 0.86,-15.44 l 5.89,-2.61 c 1.09,-1.91 -0.06,-5.67 -2.01,-6.08 -6.71,2.17 -13.7,3.95 -22.42,6.41 -7.05,1.78 -13.69,3.28 -21.25,4.76 -1.22,1.45 -0.64,4.69 1.37,6.25 l 6.66,-0.57 c 6.42,-0.54 9.22,0.56 14.2,6.81 4.01,4.87 9.67,12.93 17.13,23.31 l 48.61,68.37 c 4.31,6.18 7.73,10.74 8.01,14.55 7.82,-0.43 17.14,6.5 17.58,6.4 1.67,-0.45 2.58,-1.35 3.16,-2.64 0.96,-10.46 1.18,-21.19 2.1,-31.64 l 7.85,-97.14 c 1.25,-15.51 1.98,-17.09 12.3,-22.02 l 3.07,-1.42 c 1.28,-1.95 0.36,-5.57 -1.38,-6.27 -8.67,2.68 -16.46,4.9 -27.59,7.73 -9.15,2.35 -18.6,4.32 -26.12,6.02 -1.47,1.5 -0.7,5.39 0.93,6.37 l 4.85,-0.57 c 7.93,-0.91 9.33,0.08 8.45,9.86 l -2.63,31.56 c -0.43,6.24 -1.27,6.46 -7.29,7.97 z m -570.91,-47.17 c 31.64,4.53 48.06,24.9 44.49,49.79 -3.16,22 -20.78,33.27 -36.02,38.64 l -14.56,5.25 c -15.48,5.58 -23.23,14.48 -24.52,23.63 -1.65,11.55 3.91,23.94 21.33,26.43 18.54,2.66 28.27,-10.84 33.18,-21.72 2.18,-1.23 6.06,-0.47 6.86,1.66 -1.46,10.24 -5.7,24.33 -8.81,28.78 -10.5,0.48 -19.18,1.92 -30.5,0.29 -31.83,-4.57 -45.35,-25.19 -42.23,-46.78 2.81,-19.63 19.12,-30.86 36.78,-37.66 l 10.1,-3.89 c 17.69,-6.83 24.99,-15.99 26.79,-28.42 1.92,-13.29 -6.03,-24.68 -22.6,-27.06 -21.37,-3.07 -36.48,18.56 -42.01,29.14 -1.95,1.28 -5.62,0.51 -6.62,-1.87 1.72,-13.53 6.72,-28.17 11.29,-32.18 4.75,-2 17.01,-6.92 37.05,-4.03 z m -163.77,13.02 c 2.98,-23.1 1.11,-24 -8.99,-26.42 l -7.96,-1.91 c -1.33,-1.74 -0.59,-5.64 1.25,-6.28 9.74,1.71 23.02,3.65 32.62,4.9 l 24.86,3.21 c 25.5,3.31 44.26,5.51 53.9,6.32 2.3,6.29 4.95,23.46 5.06,32.79 -1.58,2.01 -5.39,2.19 -7.14,0.42 -5.34,-18.67 -9.34,-25.38 -37.07,-28.76 -18.32,-2.14 -22.23,-1.1 -25.24,1.61 -3.75,3.29 -5.19,11.08 -6.64,22.2 l -3.59,27.68 c -0.69,5.45 -0.54,5.91 4.49,6.55 l 10.44,1.36 c 18.97,2.45 22.73,2.51 25.46,-6.44 l 2.63,-8.52 c 1.94,-1.09 6.07,-0.55 6.96,1.11 -1.14,7 -2.56,14.55 -3.62,22.86 -1.05,8.07 -1.62,15.96 -2.18,21.88 -1.31,1.54 -5.45,1.01 -7,-0.75 l -0.56,-7.62 c -0.76,-9.6 -4,-10.25 -22.95,-12.7 l -10.46,-1.36 c -5.01,-0.65 -5.25,-0.47 -6.02,5.21 l -4.74,36.83 c -1.62,12.43 -1.68,12.85 7.68,14.07 l 14.62,1.9 c 5.87,0.75 12.51,0.95 17.69,0.3 7.22,-1.09 11.17,-5.88 16.31,-18.05 1.91,-1.09 6.19,-0.09 6.84,1.75 -2.51,9.21 -6.04,26.26 -7.39,29.85 -2.79,-0.81 -15.41,-2.66 -29.36,-4.47 l -41.62,-5.38 c -9.6,-1.25 -19.87,-2.36 -28.22,-3.01 -1.62,-1.09 -1.33,-5.04 0.38,-6.36 h 3.57 c 10.41,0.05 12.48,-0.57 15.48,-23.68 z m -135.56,38.67 c 0.33,-7.04 0.35,-7.48 10.91,-6.98 21.56,1.04 30.92,12.08 29.92,32.98 -0.84,17.37 -12.8,32.02 -31.93,31.08 -11.43,-0.57 -11.62,-1.21 -11.13,-11.34 z m -27.08,30.44 c -1.03,21.12 -1.37,23.74 -11.77,24.34 l -5.74,0.39 c -1.62,1.47 -1.78,5 -0.06,6.16 13.77,2 32.43,3.56 50.47,4.44 17.15,0.82 32.22,-0.63 42.16,-5.45 11.51,-5.41 20.13,-15.34 20.9,-31.18 1,-20.24 -14.14,-31.1 -24.71,-36.02 -1.28,-0.74 -0.74,-2.48 0.18,-3.74 19.03,-28.86 30.96,-47.02 41.7,-55.08 6.41,-5 12.86,-5.99 15.49,-6.09 1.16,-0.83 1.27,-3.24 0.66,-4.38 -2.6,-0.78 -6.74,-1.64 -14.44,-2.01 -21.11,-1.04 -32.96,6.99 -47.39,26.79 -6.39,8.96 -13.12,20.75 -18.8,29.08 -4.29,6.4 -6.77,7.17 -14.03,6.81 -6.6,-0.32 -6.79,-0.54 -6.55,-5.15 l 1.36,-28.17 c 1.1,-23.31 3.11,-23.87 13.54,-24.69 l 4.87,-0.42 c 1.61,-1.48 1.57,-5.45 -0.14,-6.4 -9.69,-0.03 -19.61,-0.29 -29.28,-0.76 -9.68,-0.47 -19.56,-1.17 -29.67,-2.1 -1.81,0.79 -2.65,4.71 -0.74,6.34 l 4.81,0.89 c 10.25,1.82 12.2,2.59 11.09,25.9 z m -62.58,1.03 c 1.12,23.29 3.12,23.85 13.52,24.68 l 4.86,0.41 c 1.61,1.47 1.59,5.42 -0.12,6.4 -9.7,-0.12 -19.58,0.13 -29.25,0.62 -10.11,0.48 -20,1.17 -29.64,2.1 -1.8,-0.64 -2.22,-4.59 -0.76,-6.21 l 4.81,-0.9 c 10.26,-1.81 12.21,-2.56 11.09,-25.85 l -3.99,-81.74 c -1.12,-23.29 -3.14,-23.86 -13.52,-24.69 l -4.88,-0.41 c -1.62,-1.46 -1.59,-5.42 0.14,-6.4 9.7,-0.03 20.02,-0.32 29.69,-0.78 9.67,-0.47 19.56,-1.17 29.2,-2.08 1.79,0.78 2.2,4.74 0.73,6.35 l -4.78,0.91 c -10.28,1.8 -12.21,2.56 -11.09,25.85 z m -106.81,-20.79 c 12.47,21.01 20.2,35 27.44,44.85 4.42,5.95 9.4,6.94 14.54,7.49 l 5.59,0.49 c 1.28,1.64 1.89,5.11 0.26,6.4 -6.18,0.26 -13.44,0.83 -21.31,1.68 -6.99,0.76 -14.42,1.81 -23.33,3.21 -1.88,-0.95 -2.46,-4.44 -1.11,-6.35 l 6.17,-2.21 c 6.39,-2.25 6.85,-4.08 2.41,-12.42 -14.84,-28.51 -31.24,-57.3 -46.04,-83.58 -1.64,5.26 -6.16,18.81 -9.02,29.11 l -11.52,40.65 c -6.57,23.29 -7.79,28.29 -7.58,30.26 0.19,1.76 2.05,2.66 7.01,3.23 l 5.59,0.72 c 2.14,1.31 2.3,4.82 0.47,6.37 -11.64,0.86 -19.09,1.46 -28.94,2.52 -8.53,0.93 -17.93,2.16 -26.41,3.53 -2.26,-0.46 -2.68,-4.39 -1.33,-6.09 l 5.15,-1.68 c 8.57,-2.68 10.2,-5.98 14.72,-21.31 l 28.3,-96.27 c 2.95,-9.61 5.27,-20.7 6.95,-29.75 1.02,-0.78 2.52,-1.38 4.05,-1.56 1.53,-0.15 3.33,0.1 3.84,0.71 4.91,10.75 17.77,35.25 28.9,54.18 z m 2813.59,-64.52 c 31.05,7.57 45.39,29.43 39.5,53.83 -5.3,21.62 -23.93,31.12 -39.61,35.03 l -14.93,3.85 c -15.97,4.04 -24.58,12.16 -26.71,21.16 -2.73,11.33 1.63,24.2 18.67,28.37 18.24,4.41 29.24,-8.11 35.12,-18.46 2.32,-1.03 6.07,0.13 6.73,2.31 -2.48,10.06 -8.06,23.66 -11.54,27.81 -10.57,-0.54 -19.35,0.07 -30.48,-2.65 -31.24,-7.59 -42.65,-29.44 -37.53,-50.62 4.71,-19.26 22.05,-28.89 40.25,-33.97 l 10.45,-2.91 c 18.29,-5.08 26.39,-13.51 29.39,-25.72 3.15,-13.07 -3.61,-25.14 -19.87,-29.08 -21,-5.12 -38.18,14.98 -44.67,24.96 -2.01,1.07 -5.66,-0.03 -6.44,-2.46 3.06,-13.33 9.41,-27.43 14.36,-30.99 4.93,-1.52 17.61,-5.24 37.31,-0.46 z m -163.29,3.16 c 2.92,-23.11 1.05,-24.01 -9.05,-26.39 l -7.95,-1.89 c -1.3,-1.72 -0.58,-5.61 1.26,-6.27 9.7,1.68 23.02,3.57 32.61,4.78 l 24.86,3.13 c 25.45,3.22 44.24,5.35 53.93,6.13 2.25,6.27 5,23.44 5.15,32.75 -1.62,2.02 -5.43,2.21 -7.12,0.45 -5.4,-18.63 -9.42,-25.33 -37.11,-28.61 -18.4,-2.09 -22.29,-1.02 -25.28,1.7 -3.75,3.28 -5.17,11.07 -6.54,22.21 l -3.53,27.67 c -0.68,5.43 -0.48,5.9 4.52,6.54 l 10.47,1.31 c 18.89,2.41 22.7,2.44 25.37,-6.52 l 2.59,-8.55 c 1.94,-1.08 6.05,-0.55 6.96,1.09 -1.05,6.93 -2.48,14.51 -3.51,22.81 -1.04,8.05 -1.58,15.94 -2.07,21.86 -1.33,1.64 -5.45,1.13 -7.03,-0.63 l -0.63,-7.62 c -0.76,-9.6 -3.98,-10.23 -22.98,-12.63 l -10.47,-1.31 c -4.99,-0.65 -5.18,-0.45 -5.96,5.21 l -4.63,36.86 c -1.54,12.4 -1.64,12.85 7.75,14.02 l 14.59,1.84 c 5.88,0.74 12.52,0.92 17.69,0.23 7.21,-1.07 11.12,-5.88 16.28,-18.1 1.84,-1.08 6.15,-0.08 6.87,1.76 -2.57,9.19 -5.98,26.25 -7.39,29.86 -2.74,-0.8 -15.38,-2.6 -29.28,-4.36 l -41.6,-5.27 c -9.6,-1.19 -19.87,-2.29 -28.27,-2.87 -1.58,-1.09 -1.37,-5.06 0.37,-6.37 l 3.52,-0.02 c 10.45,-0.02 12.49,-0.64 15.41,-23.73 z m -123.83,46.85 c -0.15,-7.04 -0.16,-7.47 10.38,-7.79 21.47,-0.68 31.7,9.54 32.33,30.41 0.61,17.34 -10.2,32.87 -29.22,33.46 -11.42,0.35 -11.74,-0.3 -11.99,-10.4 z m -24.48,32.43 c 0.65,21.09 0.55,23.74 -9.76,25.15 l -5.65,0.83 c -1.5,1.58 -1.38,5.1 0.41,6.14 13.81,0.89 32.58,0.96 50.54,0.4 17.18,-0.55 32.04,-3.21 41.51,-8.78 11.02,-6.29 18.86,-16.87 18.3,-32.68 -0.6,-20.21 -16.57,-29.82 -27.46,-33.85 -1.29,-0.64 -0.96,-2.41 -0.13,-3.74 16.73,-30.21 27.11,-49.22 37.15,-58.11 5.97,-5.46 12.27,-6.99 14.9,-7.29 1.14,-0.92 1.05,-3.34 0.33,-4.4 -2.66,-0.58 -6.88,-1.12 -14.59,-0.86 -21.07,0.65 -32.21,9.59 -44.96,30.44 -5.63,9.4 -11.36,21.67 -16.43,30.4 -3.67,6.72 -6.08,7.66 -13.31,7.89 -6.63,0.21 -6.83,-0.01 -7,-4.62 l -0.88,-28.11 c -0.72,-23.28 1.21,-23.98 11.51,-25.64 l 4.76,-0.8 c 1.5,-1.58 1.17,-5.53 -0.6,-6.35 -9.65,0.73 -19.51,1.27 -29.16,1.57 -9.67,0.3 -19.54,0.39 -29.71,0.27 -1.72,0.93 -2.27,4.91 -0.26,6.38 l 4.91,0.51 c 10.39,0.98 12.36,1.59 13.07,24.87 z m -153.41,-21.48 c -3.51,-30.11 4.5,-72.66 41.8,-77.1 24.81,-2.96 47.07,13.2 52.34,57.05 3.91,32.96 -6.34,72.9 -41.11,77.03 -21.78,2.59 -47.46,-10.5 -53.03,-56.98 z m 124.32,-19.63 c -5.18,-43 -41.7,-71.17 -85.74,-65.95 -49.32,5.86 -73.63,43.93 -68.95,82.77 5.28,44.53 41.51,73.63 87.31,68.19 50.39,-6 72.07,-45.31 67.38,-85.01 z m -187.01,-41.34 c -6.74,2.25 -8.89,3.96 -7.13,18.59 3.91,32.32 8.89,64.45 14.36,96.53 1.85,11.48 4.68,14.57 14.45,14.47 l 7.32,-0.11 c 2.35,0.94 2.64,5.12 0.39,6.39 -6.15,0.66 -13.77,1.71 -22.85,3.24 -4.78,0.82 -11.91,2.25 -17.67,3.67 -6.06,-13.74 -15.14,-25.34 -24.52,-38.48 l -27.44,-38.15 c -6.64,-9.36 -10.54,-14.95 -15.04,-20.64 -1.95,5.47 -5.76,17.24 -6.93,21.22 l -15.33,54.07 c -3.62,12.68 -7.13,24.86 -5.86,37.99 -8.11,0.76 -15.72,2.05 -23.24,3.32 -8.01,1.37 -13.87,2.57 -20.32,4.1 -2.05,-0.39 -2.93,-4.46 -1.95,-6.2 l 7.23,-2.54 c 8.2,-2.94 10.64,-7.83 8.98,-18.01 -2.24,-13.21 -6.64,-30.98 -9.96,-45.56 -4.88,-22.36 -7.91,-36.33 -11.72,-49.73 -3.81,-12.97 -5.86,-15.94 -16.5,-15.5 l -3.71,0.19 c -1.47,-0.85 -2.15,-4.98 -0.39,-6.4 8.49,-0.97 16.31,-2.1 23.24,-3.27 8.01,-1.33 14.75,-2.68 22.66,-4.49 1.85,0.59 2.63,4.69 1.26,6.25 l -6.93,2.52 c -8.98,3.29 -8.69,6.59 -6.25,20.9 3.03,17.77 6.74,36.98 9.38,50.12 1.95,9.03 5.27,25.86 7.52,36.4 l 0.39,-0.08 c 1.46,-6.93 5.07,-21.58 7.61,-31.36 l 12.31,-44.88 c 3.12,-11.67 8.79,-34.47 10.55,-46.8 1.36,-1.13 4.58,-1.68 5.66,-0.95 5.57,9.52 20.51,31.74 30.37,45.65 l 25.1,34.98 c 5.56,7.99 9.76,13.97 17.58,24.91 l 0.48,-0.07 -15.03,-88.62 c -2.45,-14.75 -3.33,-16.15 -12.31,-16.2 l -6.05,-0.09 c -2.35,-0.93 -2.15,-5.2 -0.59,-6.37 9.57,-1.17 18.95,-2.52 29.1,-4.25 8.69,-1.46 17.09,-3.1 26.37,-5.13 2.54,0.46 3.51,4.98 1.46,6.23 z m -560.69,1219.16 c 0,76.64 86.68,235.42 86.68,318.8 0,5.46 -0.53,8.36 -2.12,11.98 36.06,-32.84 61.44,-105.59 35.17,-203.79 104.33,140.66 154.31,232.54 148.64,360.6 56.78,-66.47 65.68,-143.52 65.68,-191.13 0,-94.18 -32.49,-126.2 -126.28,-258.79 -90.32,-127.66 -94.41,-202.3 -94.41,-265.98 0,-8.19 0.31,-14.94 0.75,-21.04 h -16.89 c -57.98,90.57 -97.22,164.83 -97.22,249.35 z m 252.48,-83.17 c -34.09,-51.71 -67.92,-112.6 -89.43,-166.18 h -14.9 c -1.4,9.37 -2.19,18.97 -2.19,28.86 0,174.04 144.88,287.09 205.88,405.21 21.06,-92.91 -38.21,-175.28 -99.36,-267.89 z m 121.22,178.87 c 7.79,-19.61 16.49,-45.66 16.49,-78.81 0,-95.18 -40.39,-138.62 -93,-209.77 -15.3,-20.68 -28.52,-39.2 -40.45,-56.47 h -55.63 c 7.89,30.28 23.24,69.73 51.27,107.78 82.07,111.47 115.96,205.12 121.32,237.27 z m -1463.74,-95.7 c 0,76.64 86.69,235.42 86.69,318.8 0,5.46 -0.54,8.36 -2.13,11.98 36.06,-32.84 61.44,-105.59 35.17,-203.79 104.33,140.66 154.31,232.54 148.65,360.6 56.77,-66.47 65.67,-143.52 65.67,-191.13 0,-94.18 -32.49,-126.2 -126.28,-258.79 -90.32,-127.66 -94.4,-202.3 -94.4,-265.98 0,-8.19 0.3,-14.94 0.74,-21.04 h -16.89 c -57.98,90.57 -97.22,164.83 -97.22,249.35 z m 252.48,-83.17 c -34.09,-51.71 -67.92,-112.6 -89.43,-166.18 h -14.9 c -1.4,9.37 -2.19,18.97 -2.19,28.86 0,174.04 144.88,287.09 205.89,405.21 21.06,-92.91 -38.22,-175.28 -99.37,-267.89 z m 121.23,178.87 c 7.79,-19.61 16.48,-45.66 16.48,-78.81 0,-95.18 -40.39,-138.62 -93,-209.77 -15.3,-20.68 -28.52,-39.2 -40.45,-56.47 h -55.63 c 7.89,30.28 23.24,69.73 51.27,107.78 82.07,111.47 115.96,205.12 121.33,237.27 z m 160.67,-65.77 c 0,85.84 91.91,263.67 91.91,357.06 0,6.12 -0.59,9.36 -2.28,13.4 38.24,-36.75 65.14,-118.25 37.3,-228.24 110.58,157.54 163.56,260.46 157.55,403.89 60.2,-74.46 69.62,-160.76 69.62,-214.08 0,-105.48 -34.44,-141.34 -133.86,-289.85 -95.74,-142.97 -100.07,-226.57 -100.07,-297.89 0,-9.18 0.32,-16.74 0.8,-23.57 h -17.91 c -61.46,101.44 -103.06,184.62 -103.06,279.28 z m 267.63,-93.16 c -36.12,-57.91 -71.98,-126.1 -94.79,-186.12 h -15.8 c -1.47,10.51 -2.31,21.26 -2.31,32.32 0,194.93 153.56,321.55 218.22,453.84 22.33,-104.04 -40.5,-196.31 -105.32,-300.04 z m 128.49,200.34 c 8.28,-21.97 17.48,-51.13 17.48,-88.27 0,-106.6 -42.81,-155.25 -98.57,-234.94 -16.22,-23.16 -30.22,-43.9 -42.87,-63.25 h -58.98 c 8.36,33.91 24.64,78.1 54.35,120.72 86.99,124.83 122.91,229.73 128.59,265.74 z M 2338.04,2654.81 c 109.61,-44.8 252.11,-73.94 362.11,-73.94 110,0 252.5,29.14 362.11,73.94 l 18.36,-338.37 c -109.61,-44.81 -263.39,-74.81 -380.47,-74.81 -117.08,0 -270.86,30 -380.47,74.81 z m 1056.34,350.86 h -298.63 l -34.08,111.23 h 366.7 z M 3313.13,1470.7 h -25.5 l 40.74,1484.39 h 65.23 z m -108.78,1484.39 h 81.34 L 3262.63,1470.7 h -35.32 z m 40.62,-1643.96 -79.2,61.86 9.18,47.13 h 140.14 l 9.18,-47.13 z m -148.53,1643.96 h 65.23 L 3202.41,1470.7 H 3176.9 Z M 2773.58,1317.68 h -27.12 l 23.68,872.17 c 16.36,1.27 34.89,2.74 51,4.76 z m -106.34,870.04 c 11.77,-0.45 21.19,-1.07 32.91,-1.07 11.62,0 20.96,0.71 32.58,1.15 l -13.27,-870.12 h -38.97 z m -88.48,6.94 c 16.11,-2.02 34.69,-3.49 51.04,-4.79 l 23.69,-872.19 h -27.12 z M 2700,1145.18 l -85.69,66.93 9.91,50.88 h 151.51 l 9.87,-50.88 z m -395.65,1860.49 h -298.64 l -34.06,111.23 h 366.68 z M 2223.1,1470.7 h -25.46 l 40.69,1484.39 h 65.23 z m -108.74,1484.39 h 81.29 L 2172.64,1470.7 h -35.32 z m 40.62,-1643.96 -79.2,61.86 9.13,47.13 h 140.14 l 9.18,-47.13 z M 2006.4,2955.09 h 65.33 l 40.69,-1484.39 h -25.51 z m -96.83,212.4 -90.85,139.91 h 449.79 l 90.91,-139.91 z m 589.11,-506.43 c -60.45,14.24 -115.14,32.9 -157.52,51.81 l 15.82,291.92 34.28,112.11 h 0.98 l 12.69,-19.53 h 39.65 l 37.01,-121.07 z m 118.88,-20.44 c -13.12,1.44 -35.02,4.11 -63.51,9.15 l -14.74,272.67 h 70.6 z m 126.39,281.82 -4.37,-285.2 c -13.48,-0.76 -26.1,-1.39 -39.43,-1.39 -13.43,0 -26.18,0.63 -39.75,1.42 l -4.35,285.17 z m 116.65,0 -14.75,-272.72 c -20.65,-3.67 -42.41,-6.83 -63.41,-9.1 l 7.65,281.82 z m -322.07,54.69 -36.72,120.24 h 396.38 l -36.76,-120.24 z m 525,326.15 -98.15,-151.22 h -530.76 l -98.19,151.22 z m -4.69,-590.56 c -42.48,-18.89 -97.17,-37.51 -157.62,-51.72 l 17.14,315.15 37.06,121.22 h 39.65 l 12.69,19.53 h 0.98 l 34.28,-111.99 z m 72.56,594.68 h 449.9 l -90.82,-139.91 h -449.9 l 90.82,139.91"
         style="fill:#231f20;fill-opacity:1;fill-rule:nonzero;stroke:none"
         id="path136" />
    </g>
  </g>
</svg>
